<?xml version="1.0" encoding="utf-8"?>
<!-- Generator: Adobe Illustrator 19.0.0, SVG Export Plug-In . SVG Version: 6.00 Build 0)  -->
<svg version="1.1" id="Layer_1" xmlns="http://www.w3.org/2000/svg" xmlns:xlink="http://www.w3.org/1999/xlink" x="0px" y="0px"
	 viewBox="0 0 200 200" style="enable-background:new 0 0 200 200;" xml:space="preserve">
<style type="text/css">
	.st0{fill:#34383C;}
	.st1{fill:#22B1BE;}
	.st2{clip-path:url(#XMLID_19_);fill:#22B1BE;}
	.st3{fill:#FFFFFF;}
	.st4{fill:#FACD39;}
	.st5{fill:none;stroke:#CCA031;stroke-miterlimit:10;}
	.st6{clip-path:url(#XMLID_20_);fill:none;stroke:#CCA031;stroke-miterlimit:10;}
	.st7{fill:none;stroke:#EFF2EF;stroke-miterlimit:10;}
	.st8{fill:#F04E4F;}
	.st9{fill:#98CA3C;}
	.st10{fill:#FBCC39;}
</style>
<g id="XMLID_43_">
	<circle id="XMLID_10_" class="st0" cx="100" cy="100" r="100"/>
	<path id="XMLID_27_" class="st1" d="M58.5,64.9c0,4.1-3.3,7.5-7.5,7.5s-7.5-3.3-7.5-7.5S51,53,51,53S58.5,60.8,58.5,64.9z"/>
	<path id="XMLID_28_" class="st1" d="M160,74.4c0,3.8-3.1,6.9-6.9,6.9s-6.9-3.1-6.9-6.9s6.9-11.1,6.9-11.1S160,70.6,160,74.4z"/>
	<path id="XMLID_29_" class="st1" d="M109.5,41.8c0,5.3-4.3,9.5-9.5,9.5c-5.3,0-9.5-4.3-9.5-9.5s9.5-15.2,9.5-15.2
		S109.5,36.6,109.5,41.8z"/>
	<g id="XMLID_25_">
		<defs>
			<path id="XMLID_24_" d="M181.8,100.3c0,45.2-36.6,81.8-81.8,81.8s-81.8-36.6-81.8-81.8S100,7.5,100,7.5S181.8,55.2,181.8,100.3z"
				/>
		</defs>
		<clipPath id="XMLID_19_">
			<use xlink:href="#XMLID_24_"  style="overflow:visible;"/>
		</clipPath>
		<path id="XMLID_22_" class="st2" d="M11.1,76c0,0,15.8,16.5,35.7,16.5C64.7,92.5,73.1,76,73.1,76s13,16.5,26.9,16.5
			S126.8,76,126.8,76s12.6,16.5,29.4,16.5c18.6,0,41.5-16.5,41.5-16.5v115H11.1V76z"/>
	</g>
</g>
<g id="XMLID_44_">
	<circle id="XMLID_17_" class="st0" cx="362.5" cy="100" r="100"/>
	<g id="XMLID_42_">
		<g id="XMLID_40_">
			<path id="XMLID_34_" class="st3" d="M362.6,37.9c-23.1,0.2-41.8,17.4-41.8,42.3c0,18.5,10.7,30,13.7,36.7
				c2.1,4.6,3.7,8.8,4.5,17.8c0.5,5.7,5,9.2,5,9.2h18.1h0.9h18.1c0,0,4.5-3.5,5-9.2c0.8-9,2.5-13.2,4.5-17.8
				c3-6.7,13.7-18.3,13.7-36.7C404.3,55.3,385.7,38.1,362.6,37.9z"/>
			<polygon id="XMLID_30_" class="st4" points="381.1,159.4 369.5,167.5 355.4,167.5 344,159.4 344,143.9 381.1,143.9 			"/>
			<line id="XMLID_12_" class="st5" x1="344" y1="146.9" x2="381.1" y2="146.9"/>
			<line id="XMLID_31_" class="st5" x1="344" y1="152.3" x2="381.1" y2="152.3"/>
			<line id="XMLID_32_" class="st5" x1="344" y1="157.7" x2="381.1" y2="157.7"/>
			<g id="XMLID_36_">
				<defs>
					<polygon id="XMLID_18_" points="381.1,159.4 369.5,167.5 355.4,167.5 344,159.4 344,143.9 381.1,143.9 					"/>
				</defs>
				<clipPath id="XMLID_20_">
					<use xlink:href="#XMLID_18_"  style="overflow:visible;"/>
				</clipPath>
				<line id="XMLID_35_" class="st6" x1="344" y1="163" x2="381.1" y2="163"/>
			</g>
		</g>
		<path id="XMLID_41_" class="st7" d="M355.2,143.9c0,0,0.2-41.4-6.3-51.9s-3.6-15.1,1.6-15.1c4.1,0,14.4,10.9,6.9,10.9
			c-8.5,0-2.9-11.9,4.8-11.9c8,0,13.1,11.1,7.1,11.1c-5.8,0-5-9.5,2.7-9.5c8,0,10.1,6.5,5.3,13.4c-6.9,9.9-7.2,53-7.2,53"/>
	</g>
</g>
<g id="XMLID_52_">
	<circle id="XMLID_21_" class="st0" cx="625.1" cy="100" r="100"/>
	<g id="XMLID_51_">
		<g id="XMLID_47_">
			<circle id="XMLID_45_" class="st3" cx="625.1" cy="140.6" r="33.8"/>
			<path id="XMLID_46_" class="st3" d="M638.6,153.3h-27c-4.4,0-8-3.6-8-8V43.2c0-4.4,3.6-8,8-8h27c4.4,0,8,3.6,8,8v102.2
				C646.6,149.7,643,153.3,638.6,153.3z"/>
		</g>
		<g id="XMLID_48_">
			<circle id="XMLID_50_" class="st8" cx="625.1" cy="140.6" r="24.3"/>
			<path id="XMLID_49_" class="st8" d="M632.7,131.3h-15.3c-2.5,0-4.5-2-4.5-4.5V81.7c0-2.5,2-4.5,4.5-4.5h15.3c2.5,0,4.5,2,4.5,4.5
				v45.1C637.3,129.3,635.2,131.3,632.7,131.3z"/>
		</g>
	</g>
</g>
<g id="XMLID_74_">
	<circle id="XMLID_82_" class="st0" cx="887.6" cy="100" r="100"/>
	<path id="XMLID_80_" class="st8" d="M928.3,29.5l-8,13.9C939.8,54.7,953,75.9,953,100h16.1C969.1,69.9,952.7,43.6,928.3,29.5z"/>
	<path id="XMLID_78_" class="st9" d="M854.9,43.4l-8-13.9c-24.3,14.1-40.8,40.4-40.8,70.5h16.1C822.3,75.9,835.4,54.7,854.9,43.4z"
		/>
	<path id="XMLID_77_" class="st10" d="M920.3,43.4l8-13.9c-12-6.9-25.9-10.9-40.7-10.9c-14.8,0-28.7,4-40.7,10.9l8,13.9
		c9.6-5.6,20.8-8.8,32.7-8.8C899.5,34.6,910.7,37.9,920.3,43.4z"/>
	<g id="XMLID_70_">
		<path id="XMLID_81_" class="st3" d="M912.8,141.2c0,13.9-11.3,25.1-25.1,25.1s-25.1-11.3-25.1-25.1c0-13.9,25.1-81.8,25.1-81.8
			S912.8,127.3,912.8,141.2z"/>
		<circle id="XMLID_76_" class="st0" cx="887.6" cy="142.8" r="10.9"/>
	</g>
</g>
</svg>
