<?xml version="1.0" encoding="utf-8"?>
<!-- Generator: Adobe Illustrator 19.1.0, SVG Export Plug-In . SVG Version: 6.00 Build 0)  -->
<svg version="1.1" id="Layer_1" xmlns="http://www.w3.org/2000/svg" xmlns:xlink="http://www.w3.org/1999/xlink" x="0px" y="0px"
	 viewBox="0 0 111.4 12.1" style="enable-background:new 0 0 111.4 12.1;" xml:space="preserve">
<style type="text/css">
	.st0{fill:#010101;}
</style>
<g id="XMLID_1042_">
	<g>
		<path id="XMLID_152_" class="st0" d="M0.9,5.6H8v0.8H0.9v4.8h7.7v0.9H0V0h8.4v0.9H0.9V5.6z"/>
		<path id="XMLID_150_" class="st0" d="M13.1,0v11.3H20v0.9h-7.8V0H13.1z"/>
		<path id="XMLID_148_" class="st0" d="M24.2,5.6h7.1v0.8h-7.1v4.8h7.7v0.9h-8.6V0h8.4v0.9h-7.5V5.6z"/>
		<path id="XMLID_146_" class="st0" d="M46.1,1.4l-4.6,7.1h-0.3l-4.7-7.1v10.8h-0.9V0c0.5,0,0.7,0,1.1,0l4.6,7.1L45.9,0H47v12.1
			h-0.9V1.4z"/>
		<path id="XMLID_144_" class="st0" d="M52.2,5.6h7.1v0.8h-7.1v4.8h7.7v0.9h-8.6V0h8.4v0.9h-7.5V5.6z"/>
		<path id="XMLID_142_" class="st0" d="M64.3,0l8.2,10V0h0.9v12.1H73l-8.2-10v10h-0.9V0H64.3z"/>
		<path id="XMLID_140_" class="st0" d="M81.1,0.8h-4.4V0h9.7v0.8H82v11.3h-0.9V0.8z"/>
		<path id="XMLID_137_" class="st0" d="M99.4,12.1l-1.3-3h-7.3l-1.3,3h-1L93.9,0h1l5.4,12.1H99.4z M97.7,8.3l-3.3-7.4l-3.3,7.4H97.7
			z"/>
		<path id="XMLID_135_" class="st0" d="M104.6,0v11.3h6.8v0.9h-7.8V0H104.6z"/>
	</g>
</g>
</svg>
